<mxfile host="app.diagrams.net" modified="2021-09-03T19:46:11.893Z" agent="5.0 (Windows NT 10.0; Win64; x64) AppleWebKit/537.36 (KHTML, like Gecko) Chrome/92.0.4515.159 Safari/537.36" etag="E07RRKBiYFmkTULfFSJt" version="14.8.3" type="github">
  <diagram id="tleqDvwHOWDYYHIql2sY" name="Page-1">
    <mxGraphModel dx="1209" dy="674" grid="1" gridSize="10" guides="1" tooltips="1" connect="1" arrows="1" fold="1" page="1" pageScale="1" pageWidth="827" pageHeight="1169" math="0" shadow="0">
      <root>
        <mxCell id="0" />
        <mxCell id="1" parent="0" />
        <mxCell id="1j0YRFoj2sgmNLvWQuMk-8" value="EF MSSQL Provider" style="edgeStyle=orthogonalEdgeStyle;rounded=0;orthogonalLoop=1;jettySize=auto;html=1;entryX=0;entryY=0.5;entryDx=0;entryDy=0;" edge="1" parent="1" source="1j0YRFoj2sgmNLvWQuMk-1" target="1j0YRFoj2sgmNLvWQuMk-2">
          <mxGeometry relative="1" as="geometry" />
        </mxCell>
        <mxCell id="1j0YRFoj2sgmNLvWQuMk-1" value="Repositories" style="rounded=1;whiteSpace=wrap;html=1;fillColor=none;labelPosition=center;verticalLabelPosition=top;align=center;verticalAlign=bottom;" vertex="1" parent="1">
          <mxGeometry x="140" y="120" width="190" height="330" as="geometry" />
        </mxCell>
        <mxCell id="1j0YRFoj2sgmNLvWQuMk-2" value="Database" style="rounded=1;whiteSpace=wrap;html=1;fillColor=none;labelPosition=center;verticalLabelPosition=top;align=center;verticalAlign=bottom;" vertex="1" parent="1">
          <mxGeometry x="500" y="120" width="190" height="330" as="geometry" />
        </mxCell>
        <mxCell id="1j0YRFoj2sgmNLvWQuMk-3" value="Reservation&amp;nbsp;&lt;br&gt;[Repository]" style="rounded=1;whiteSpace=wrap;html=1;fillColor=#1ba1e2;strokeColor=#006EAF;fontColor=#ffffff;" vertex="1" parent="1">
          <mxGeometry x="180" y="340" width="120" height="60" as="geometry" />
        </mxCell>
        <mxCell id="1j0YRFoj2sgmNLvWQuMk-4" value="Car&lt;br&gt;[Repository]" style="rounded=1;whiteSpace=wrap;html=1;fillColor=#1ba1e2;strokeColor=#006EAF;fontColor=#ffffff;" vertex="1" parent="1">
          <mxGeometry x="180" y="240" width="120" height="60" as="geometry" />
        </mxCell>
        <mxCell id="1j0YRFoj2sgmNLvWQuMk-5" value="Customer&lt;br&gt;[Repository]" style="rounded=1;whiteSpace=wrap;html=1;fillColor=#1ba1e2;strokeColor=#006EAF;fontColor=#ffffff;" vertex="1" parent="1">
          <mxGeometry x="180" y="140" width="120" height="60" as="geometry" />
        </mxCell>
        <mxCell id="1j0YRFoj2sgmNLvWQuMk-6" value="DB-Provider" style="rounded=1;whiteSpace=wrap;html=1;fillColor=#dae8fc;strokeColor=#6c8ebf;" vertex="1" parent="1">
          <mxGeometry x="535" y="160" width="120" height="110" as="geometry" />
        </mxCell>
        <mxCell id="1j0YRFoj2sgmNLvWQuMk-7" value="MSSQL" style="shape=cylinder3;whiteSpace=wrap;html=1;boundedLbl=1;backgroundOutline=1;size=15;fillColor=#ffe6cc;strokeColor=#d79b00;" vertex="1" parent="1">
          <mxGeometry x="552.5" y="310" width="85" height="90" as="geometry" />
        </mxCell>
      </root>
    </mxGraphModel>
  </diagram>
</mxfile>
